<?xml version="1.0" encoding="UTF-8"?>
<svg version="1.1" xmlns="http://www.w3.org/2000/svg" width="412" height="437">
<path d="M0 0 C1.96270253 0.02671724 3.92544944 0.05010834 5.88819504 0.07344818 C18.50198391 0.2317161 30.92760022 0.39512578 43.3674736 2.6521225 C44.12093063 2.78699066 44.87438766 2.92185883 45.65067673 3.0608139 C60.09189334 5.95128352 73.55188228 12.67814176 84.3674736 22.6521225 C85.26981735 23.46294281 86.1721611 24.27376312 87.1018486 25.10915375 C106.44869034 43.36038704 113.64862818 67.51663066 114.42634177 93.62864232 C114.52381659 99.09447731 114.51453715 104.56084734 114.51273727 110.02736664 C114.51573524 111.85722674 114.51913922 113.68708622 114.52291489 115.51694489 C114.53170073 120.4600417 114.53409089 125.40312116 114.53473067 130.34622502 C114.535445 133.44878201 114.53758667 136.5513347 114.54022789 139.65389061 C114.54946802 150.51959636 114.55356502 161.3852899 114.55277634 172.25099945 C114.55217801 182.3084024 114.56268491 192.36575128 114.57852 202.42314059 C114.59169941 211.10993479 114.59695582 219.79671158 114.59632093 228.48351568 C114.59606869 233.64801941 114.59876438 238.81247518 114.60949898 243.97696877 C114.7915153 338.13988262 114.7915153 338.13988262 86.90262985 366.17946625 C86.06602829 366.99544281 85.22942673 367.81141937 84.3674736 368.6521225 C83.53022751 369.52030609 83.53022751 369.52030609 82.67606735 370.40602875 C58.9478708 393.14296905 21.89383422 391.82127117 -8.55220413 391.78151703 C-10.34371857 391.78287734 -12.13523273 391.78466076 -13.92674637 391.78682709 C-18.72641288 391.79132698 -23.52605754 391.78964291 -28.32572436 391.786448 C-33.39137622 391.78388501 -38.45702643 391.7862728 -43.52267838 391.78783417 C-52.02454839 391.78964467 -60.52640967 391.78727928 -69.02827835 391.78249359 C-78.80193356 391.77705491 -88.57556789 391.77881532 -98.3492226 391.78432 C-106.79914286 391.78888531 -115.24905691 391.78948501 -123.69897801 391.78688133 C-128.72007371 391.78533701 -133.74115967 391.78507328 -138.76225471 391.78841782 C-225.2029145 391.83786316 -225.2029145 391.83786316 -254.3200264 364.2771225 C-276.99504717 340.59550033 -279.61291363 308.85979752 -279.94893265 277.753685 C-279.96979136 276.08063735 -279.99088109 274.40759257 -280.01218033 272.73455048 C-280.06826933 268.19728151 -280.11780474 263.65996454 -280.16515732 259.12259674 C-280.19517206 256.26324562 -280.2265699 253.40391224 -280.25819778 250.54457855 C-280.60841738 218.46439599 -280.74018943 186.38455583 -280.75546265 154.30256653 C-280.75751357 150.92325347 -280.76126858 147.54394584 -280.76536942 144.1646347 C-280.77128055 138.79613969 -280.77133858 133.42767358 -280.76690865 128.0591774 C-280.7658858 126.09368533 -280.7663958 124.12819168 -280.76866722 122.16270065 C-280.7780126 112.3966225 -280.66674148 102.65352042 -280.20235062 92.89723969 C-280.16572374 92.10361149 -280.12909687 91.30998329 -280.09136009 90.49230576 C-278.72872672 64.85990112 -271.01025502 42.8180041 -252.6325264 24.6521225 C-251.90291702 23.91220062 -251.17330765 23.17227875 -250.4215889 22.409935 C-233.15603924 5.91459573 -209.46251309 0.80903109 -186.31612015 0.33571625 C-185.39698837 0.31484451 -184.4778566 0.29397278 -183.53087234 0.27246857 C-180.37735132 0.20485018 -177.22376651 0.14607997 -174.0700264 0.0896225 C-172.37606232 0.05835266 -172.37606232 0.05835266 -170.64787674 0.02645111 C-113.79040463 -0.9760261 -56.85943787 -0.79832059 0 0 Z M-96.0075264 49.0271225 C-99.1734377 54.14128691 -100.01750718 57.48375835 -99.17549515 63.43727875 C-98.11678026 67.75592147 -95.78346091 70.63659204 -92.5075264 73.5271225 C-90.71112992 74.82362108 -90.71112992 74.82362108 -88.6325264 74.6521225 C-88.6325264 80.5921225 -88.6325264 86.5321225 -88.6325264 92.6521225 C-90.36115921 92.61731781 -92.08979202 92.58251312 -93.87080765 92.54665375 C-119.65933781 92.18163432 -143.94225788 93.56790106 -163.67354202 112.2248764 C-177.99541019 126.28076702 -186.83507762 143.88969725 -187.07501602 164.16501617 C-187.07208038 165.28095657 -187.06914474 166.39689697 -187.06612015 167.54665375 C-187.071362 168.73707779 -187.07660385 169.92750183 -187.08200455 171.15399933 C-187.08838616 173.65572587 -187.0871383 176.15748257 -187.07857132 178.65920258 C-187.07007157 182.4445072 -187.09886439 186.2282948 -187.13057327 190.01345062 C-187.17257549 204.50427437 -186.89318075 217.32218866 -180.2575264 230.4646225 C-176.05935254 239.45777448 -183.04984408 253.85260765 -185.5700264 263.0271225 C-187.07938418 268.5415576 -188.5812421 274.0578976 -190.06874466 279.57826996 C-190.58604335 281.48113613 -191.11855168 283.37985047 -191.65254593 285.27809906 C-192.07769485 286.8438266 -192.07769485 286.8438266 -192.51143265 288.441185 C-192.75579056 289.3172641 -193.00014847 290.1933432 -193.25191116 291.09597015 C-193.71562984 294.21023219 -193.39546202 296.60512366 -192.6325264 299.6521225 C-190.0974816 302.40445685 -188.53790623 303.51738586 -184.82393265 304.07009125 C-180.62187856 303.51976103 -178.61781241 301.4874574 -175.7575264 298.5896225 C-174.70087955 297.56942297 -173.64358785 296.54989091 -172.5856514 295.53102875 C-172.0784053 295.03361176 -171.57115921 294.53619476 -171.04854202 294.02370453 C-169.25834749 292.28968507 -167.3971434 290.65173224 -165.5075264 289.0271225 C-162.54125439 286.45389688 -159.61142006 283.84430465 -156.6950264 281.2146225 C-155.84295609 280.46567719 -154.99088577 279.71673187 -154.11299515 278.94509125 C-151.61483188 276.71931969 -151.61483188 276.71931969 -149.55830765 274.26540375 C-144.64277429 268.90045019 -144.64277429 268.90045019 -140.67988968 268.41091156 C-135.93604979 268.3404109 -131.31150616 268.91726433 -126.6325264 269.6521225 C-125.42750541 266.40835076 -124.24663858 263.15629561 -123.0700264 259.9021225 C-122.7277803 258.98173187 -122.38553421 258.06134125 -122.03291702 257.11306 C-121.71387405 256.22360687 -121.39483109 255.33415375 -121.06612015 254.4177475 C-120.76762161 253.60080414 -120.46912308 252.78386078 -120.16157913 251.94216156 C-119.57325376 249.39555704 -119.62032867 248.05316501 -120.6325264 245.6521225 C-123.26329891 244.34329952 -123.26329891 244.34329952 -126.5075264 243.4021225 C-139.04347265 238.89851859 -149.31438391 230.40931449 -155.5075264 218.5271225 C-161.6080076 205.20023236 -160.89191836 191.00146505 -160.6325264 176.6521225 C-160.61995804 175.81423187 -160.60738968 174.97634125 -160.59444046 174.11306 C-160.29629483 158.39044166 -157.50822251 144.83933998 -146.3825264 132.9021225 C-133.8189387 121.24377147 -118.88120879 119.02634111 -102.4137764 119.15602875 C-100.7819805 119.15587326 -99.15018424 119.15437613 -97.51839066 119.15161896 C-94.119581 119.15024446 -90.72119819 119.16263182 -87.3224678 119.18556976 C-83.00243792 119.21395153 -78.68311553 119.21120421 -74.36303329 119.19847965 C-70.99975595 119.19146901 -67.63663733 119.1993726 -64.27338028 119.21173668 C-62.68204739 119.2161991 -61.09069715 119.21663452 -59.49936295 119.21267128 C-45.65012842 119.19431591 -33.15208 120.27966344 -21.6325264 128.6521225 C-20.92354202 129.16645844 -20.21455765 129.68079437 -19.4840889 130.21071625 C-10.09172479 137.71381172 -4.16552797 148.79251101 -2.6325264 160.6521225 C-2.47014645 164.13371749 -2.44483814 167.61242495 -2.4294014 171.097435 C-2.42370132 172.10369934 -2.41800125 173.10996368 -2.41212845 174.14672089 C-2.40270447 176.2731853 -2.39615484 178.39966415 -2.39229202 180.52614594 C-2.38262143 183.74548778 -2.3515871 186.96418117 -2.3200264 190.1833725 C-2.25653878 202.44362928 -2.49016923 213.00648057 -7.7575264 224.2771225 C-10.28992034 232.01428591 -4.80153403 240.70904612 -1.6325264 247.6521225 C1.86106735 247.6521225 2.16317179 247.31097439 4.5549736 244.9646225 C11.88238788 237.2956762 17.01619428 227.65193763 20.3674736 217.6521225 C20.63334274 216.89576508 20.89921188 216.13940765 21.17313766 215.36013031 C24.1107634 205.5965171 23.85539998 195.69987266 23.81351852 185.60012054 C23.80503873 182.48851888 23.83379388 179.37877682 23.86552048 176.26735687 C23.94814013 153.12601755 19.31539953 134.20920852 3.3674736 116.6521225 C2.82735641 116.01919281 2.28723923 115.38626312 1.73075485 114.73415375 C-7.83967976 104.19944361 -24.58538435 94.84042555 -38.79996109 93.4383316 C-41.2229728 93.3276136 -43.64081576 93.27145825 -46.06612015 93.23806 C-47.38302589 93.20901077 -47.38302589 93.20901077 -48.7265358 93.17937469 C-51.50760309 93.11999512 -54.28871273 93.07336133 -57.0700264 93.0271225 C-58.9652259 92.98890434 -60.86040875 92.94985042 -62.75557327 92.909935 C-67.38108769 92.81432821 -72.00668332 92.73014495 -76.6325264 92.6521225 C-78.46949519 87.14121613 -77.83665443 81.27579737 -76.6325264 75.6521225 C-75.0021653 73.70405001 -73.57930467 72.82391377 -71.35518265 71.6364975 C-68.39159151 69.94301685 -67.66502053 67.81033985 -66.6325264 64.6521225 C-65.90527435 58.95702194 -66.32632126 54.50122337 -69.6325264 49.6521225 C-73.75870165 45.12339356 -76.98729077 43.83237553 -83.1012764 43.51931 C-88.43564778 43.79919985 -92.2268694 45.2464655 -96.0075264 49.0271225 Z M-134.24580765 156.347435 C-137.44908681 160.80495586 -138.36905891 164.80515592 -138.04268265 170.2614975 C-137.08717727 175.83072886 -134.59464723 179.26351519 -130.0700264 182.5896225 C-125.07739212 185.37880366 -120.20275618 185.79369575 -114.6325264 184.6521225 C-110.277183 182.55324813 -107.4560733 179.78449948 -104.6325264 175.9021225 C-102.83925506 170.07399065 -102.54052708 164.87812111 -105.2575264 159.3396225 C-109.69396646 154.31944032 -113.37842386 150.9278939 -120.3200264 150.3396225 C-125.92483663 150.45295506 -130.35834567 152.26230546 -134.24580765 156.347435 Z M-78.6325264 173.6521225 C-79.92227445 176.24796258 -80.92873966 178.90040034 -81.90205765 181.628685 C-82.18389908 182.38680984 -82.46574051 183.14493469 -82.75612259 183.92603302 C-83.66333735 186.37252381 -84.55406972 188.82467012 -85.4450264 191.2771225 C-86.38652757 193.82726714 -87.33225814 196.3758167 -88.27826309 198.92429352 C-88.89696313 200.591822 -89.51429626 202.25985831 -90.13022232 203.92841339 C-92.2148839 209.56849246 -94.3992877 215.15691663 -96.6950264 220.7146225 C-101.94735391 233.57080978 -106.47690678 246.71129354 -111.16322708 259.78108978 C-113.66971799 266.76725878 -116.20357425 273.74317932 -118.75722122 280.71224213 C-119.43756677 282.56926128 -120.11635413 284.42685106 -120.79512405 286.28444672 C-122.84269326 291.86713541 -124.92186878 297.43279857 -127.0934639 302.96852875 C-127.66036942 304.41981171 -127.66036942 304.41981171 -128.23872757 305.90041351 C-128.93265321 307.66632815 -129.63520727 309.42889037 -130.34859085 311.18703461 C-132.04047296 315.48740321 -133.1403507 318.94186807 -132.6325264 323.6521225 C-129.92639933 326.35824956 -121.90180713 324.88727818 -118.2575264 324.9021225 C-116.9994014 324.9227475 -115.7412764 324.9433725 -114.4450264 324.9646225 C-112.63904984 324.97235687 -112.63904984 324.97235687 -110.7965889 324.9802475 C-109.13297318 324.99426605 -109.13297318 324.99426605 -107.43574905 325.00856781 C-104.6944047 324.86025323 -104.6944047 324.86025323 -102.90938187 323.56716156 C-101.0641705 320.79969732 -100.07363346 317.81693126 -99.0387764 314.6833725 C-98.80597977 314.00665497 -98.57318314 313.32993744 -98.33333206 312.63271332 C-97.59137762 310.47526155 -96.86062649 308.31428621 -96.1325264 306.1521225 C-95.17372041 303.30485529 -94.20359098 300.46183246 -93.2262764 297.6208725 C-93.01055984 296.96768036 -92.79484329 296.31448822 -92.57258987 295.64150238 C-91.41143107 292.26967157 -90.49086795 289.83116359 -87.6325264 287.6521225 C-85.25535965 287.25771332 -85.25535965 287.25771332 -82.41426468 287.23220062 C-80.81713135 287.20833282 -80.81713135 287.20833282 -79.1877327 287.18398285 C-78.03771774 287.18378143 -76.88770279 287.18358002 -75.7028389 287.1833725 C-74.52035568 287.17575897 -73.33787247 287.16814545 -72.11955643 287.16030121 C-69.61625151 287.14948753 -67.11290142 287.14665221 -64.60957718 287.15114594 C-60.77922053 287.152117 -56.95087427 287.11053158 -53.12080765 287.066185 C-50.68982225 287.06097727 -48.25882987 287.05828982 -45.8278389 287.0583725 C-44.68187241 287.04197723 -43.53590591 287.02558197 -42.35521317 287.00868988 C-34.4649364 287.07724099 -34.4649364 287.07724099 -30.54463577 289.78469086 C-28.50429068 292.84442696 -27.12160299 295.67568647 -25.8434639 299.12477875 C-25.14350296 300.96846039 -25.14350296 300.96846039 -24.4294014 302.84938812 C-23.95452906 304.13746298 -23.48057898 305.42587821 -23.0075264 306.7146225 C-22.06529479 309.25044623 -21.11239564 311.78171975 -20.1559639 314.31227875 C-19.74265823 315.43255463 -19.32935257 316.55283051 -18.90352249 317.70705414 C-17.27421429 321.53464411 -17.27421429 321.53464411 -14.6325264 324.6521225 C-11.75050936 325.2209463 -11.75050936 325.2209463 -8.4684639 325.07790375 C-7.26447952 325.06952484 -6.06049515 325.06114594 -4.8200264 325.05251312 C-3.5619014 325.02350922 -2.3037764 324.99450531 -1.0075264 324.9646225 C0.25833298 324.95495453 1.52419235 324.94528656 2.8284111 324.93532562 C8.47363894 325.40523074 8.47363894 325.40523074 13.3674736 323.6521225 C14.15071127 316.87942028 11.67988993 311.74070563 9.0549736 305.5896225 C8.12545016 303.33986292 7.19982681 301.08848893 6.27762985 298.83571625 C5.79568161 297.65864105 5.31373337 296.48156586 4.81718063 295.26882172 C2.41518311 289.27636781 0.19918927 283.21869202 -2.0075264 277.1521225 C-2.23489487 276.52843781 -2.46226334 275.90475311 -2.69652176 275.26216888 C-5.06409589 268.76724877 -7.41235736 262.26540405 -9.75490189 255.7614212 C-10.96186074 252.4116742 -12.17136888 249.06285357 -13.3825264 245.7146225 C-13.74592117 244.7097731 -13.74592117 244.7097731 -14.11665726 243.68462372 C-19.02480852 230.13643517 -24.17789316 216.68513245 -29.38154984 203.24806976 C-29.83207718 202.08394814 -29.83207718 202.08394814 -30.29170609 200.8963089 C-30.88385797 199.36843636 -31.47758222 197.8411722 -32.07295609 196.31455231 C-33.51214887 192.61197375 -34.91124232 188.90204008 -36.23506546 185.15651703 C-36.493452 184.43537216 -36.75183853 183.71422729 -37.01805496 182.97122955 C-37.49692947 181.62778191 -37.96602281 180.28078327 -38.42253494 178.92957306 C-40.11507286 174.20957908 -42.03720938 171.08272668 -45.6325264 167.6521225 C-48.71104953 166.74039314 -48.71104953 166.74039314 -52.0700264 166.8552475 C-53.29463577 166.84751312 -54.51924515 166.83977875 -55.7809639 166.83181 C-57.05197952 166.85501312 -58.32299515 166.87821625 -59.6325264 166.9021225 C-60.90354202 166.87891937 -62.17455765 166.85571625 -63.4840889 166.83181 C-65.32100296 166.84341156 -65.32100296 166.84341156 -67.1950264 166.8552475 C-68.31006546 166.86201508 -69.42510452 166.86878265 -70.57393265 166.87575531 C-74.71062233 167.92577712 -76.50171316 170.13426764 -78.6325264 173.6521225 Z " fill="#187CE6" transform="translate(290.6325263977051,8.347877502441406)"/>
<path d="M0 0 C0.33 0 0.66 0 1 0 C1.33 2.64 1.66 5.28 2 8 C2.33 8 2.66 8 3 8 C3.04695624 32.30660441 3.0821036 56.61320191 3.10362434 80.91984272 C3.11388741 92.20870299 3.12785131 103.4975349 3.15087891 114.78637695 C3.17096644 124.63870124 3.18375242 134.49100496 3.18817699 144.34334916 C3.19075868 149.54827976 3.19671979 154.75315158 3.21146011 159.95806313 C3.4660569 253.57626917 3.4660569 253.57626917 -23.06420898 281.11914062 C-24.36350111 282.42545351 -25.6810358 283.71355264 -27 285 C-27.83724609 285.86818359 -27.83724609 285.86818359 -28.69140625 286.75390625 C-52.4196028 309.49084655 -89.47363939 308.16914868 -119.91967773 308.12939453 C-121.71119217 308.13075484 -123.50270633 308.13253826 -125.29421997 308.13470459 C-130.09388649 308.13920448 -134.89353114 308.13752042 -139.69319797 308.1343255 C-144.75884983 308.13176251 -149.82450003 308.1341503 -154.89015198 308.13571167 C-163.39202199 308.13752217 -171.89388327 308.13515678 -180.39575195 308.13037109 C-190.16940717 308.12493241 -199.9430415 308.12669283 -209.7166962 308.1321975 C-218.16661646 308.13676281 -226.61653051 308.13736252 -235.06645161 308.13475883 C-240.08754732 308.13321452 -245.10863327 308.13295079 -250.12972832 308.13629532 C-336.5703881 308.18574066 -336.5703881 308.18574066 -365.6875 280.625 C-388.33508774 256.9720287 -391.22217671 225.06782687 -391.09375 193.94921875 C-391.08989169 192.12985787 -391.08628278 190.31049645 -391.08288574 188.49113464 C-391.06648751 181.66069953 -391.0341724 174.83036654 -391 168 C-390.99648277 167.29555032 -390.99296555 166.59110064 -390.98934174 165.86530399 C-390.86621156 141.34525663 -390.71289604 116.82539971 -390.55461884 92.30555809 C-390.49306243 82.7619098 -390.43310503 73.21825165 -390.37324238 63.67459261 C-390.25052957 44.1163841 -390.12593077 24.55818804 -390 5 C-389.67 5 -389.34 5 -389 5 C-388.99365209 6.46158633 -388.99365209 6.46158633 -388.98717594 7.95269966 C-388.88360188 31.7526112 -388.77480786 55.55249462 -388.66066074 79.35235786 C-388.60557686 90.8621743 -388.55213814 102.37199382 -388.50268555 113.88183594 C-388.45953687 123.9234724 -388.41318614 133.96508832 -388.36312145 144.00669277 C-388.33676488 149.31483015 -388.31192257 154.62296412 -388.29092598 159.93112564 C-388.27103799 164.94615898 -388.24680949 169.96115413 -388.21950912 174.97615242 C-388.21030561 176.79876941 -388.20257412 178.62139466 -388.19658089 180.44402504 C-388.16338994 190.25203471 -387.97096779 200.03705571 -387.53477478 209.83615112 C-387.49432747 210.75017106 -387.45388017 211.664191 -387.41220719 212.60590851 C-387.09187815 219.26335045 -386.47981309 225.80739001 -385.3125 232.375 C-385.13879883 233.37047852 -384.96509766 234.36595703 -384.78613281 235.39160156 C-380.66780227 257.48212673 -369.66331576 275.66140644 -351.234375 288.8984375 C-327.1168873 304.56897903 -300.32211977 305.15415511 -272.55639648 305.14526367 C-270.66034378 305.14826396 -268.76429168 305.15166846 -266.86824036 305.15544128 C-261.7644972 305.16419778 -256.66077085 305.16661586 -251.5570209 305.16725707 C-248.3546378 305.16797243 -245.15225885 305.17011586 -241.94987679 305.17275429 C-230.73863585 305.18198063 -219.52740672 305.18609265 -208.31616211 305.18530273 C-197.92913533 305.18470293 -187.54216064 305.19524277 -177.15514702 305.2110464 C-168.18468532 305.22419968 -159.21424048 305.22948338 -150.24376923 305.22884732 C-144.90954344 305.22859458 -139.57536402 305.23132008 -134.24114799 305.24202538 C-85.41889182 306.43119993 -85.41889182 306.43119993 -40 291 C-39.12601562 290.505 -38.25203125 290.01 -37.3515625 289.5 C-18.67079743 277.96380823 -8.9586194 257.68718232 -4 237 C-3.21399037 232.34733542 -2.73146463 227.69857264 -2.3125 223 C-2.19583984 221.88367188 -2.07917969 220.76734375 -1.95898438 219.6171875 C0.62162413 192.61556629 0.14288228 165.31055309 0.10139394 138.2167325 C0.09502712 133.33617076 0.0945463 128.45560798 0.09336853 123.57504272 C0.09029367 114.38559243 0.08213367 105.19615441 0.07201904 96.00670946 C0.0607365 85.52253898 0.05531726 75.03836784 0.05032361 64.55419278 C0.03994658 43.03612174 0.02242388 21.51806165 0 0 Z " fill="#0244D4" transform="translate(402,92)"/>
<path d="M0 0 C0.99 0.33 1.98 0.66 3 1 C4.12545991 3.63135698 5.05393899 6.1667743 5.92578125 8.8828125 C6.19585495 9.68927216 6.46592865 10.49573181 6.7441864 11.32662964 C7.61158194 13.9224922 8.46283748 16.52328472 9.3125 19.125 C10.42736738 22.50469326 11.5499752 25.88174901 12.67578125 29.2578125 C12.948992 30.08396057 13.22220276 30.91010864 13.50369263 31.7612915 C15.70092991 38.32518818 18.25649437 44.68249968 21.02026367 51.02685547 C21.99321422 53.97940762 22.3161868 55.21485838 21 58 C17.80256861 59.59871569 14.32940884 59.18421681 10.81640625 59.203125 C9.59944313 59.21167511 9.59944313 59.21167511 8.3578949 59.22039795 C6.64054673 59.22984986 4.92318041 59.23638269 3.20581055 59.24023438 C0.57633951 59.24994887 -2.05235283 59.28097318 -4.68164062 59.3125 C-6.34895368 59.31902918 -8.01627234 59.32427998 -9.68359375 59.328125 C-10.86495155 59.3466452 -10.86495155 59.3466452 -12.07017517 59.36553955 C-17.54416044 59.34316074 -17.54416044 59.34316074 -20.01977539 57.47949219 C-20.34324951 56.99125977 -20.66672363 56.50302734 -21 56 C-18.81302918 47.21531104 -15.93801393 38.71856783 -12.92138672 30.19311523 C-12.12609603 27.9406043 -11.3420841 25.68437277 -10.55859375 23.42773438 C-3.61256493 3.61256493 -3.61256493 3.61256493 0 0 Z " fill="#1777E2" transform="translate(231,210)"/>
<path d="M0 0 C1.96270253 0.02671724 3.92544944 0.05010834 5.88819504 0.07344818 C18.50198391 0.2317161 30.92760022 0.39512578 43.3674736 2.6521225 C44.12093063 2.78699066 44.87438766 2.92185883 45.65067673 3.0608139 C67.07684385 7.34935044 86.90568047 20.65856266 99.0549736 38.8396225 C99.83974847 40.10189418 100.61677906 41.36929005 101.3674736 42.6521225 C101.0374736 43.3121225 100.7074736 43.9721225 100.3674736 44.6521225 C98.5549736 44.5896225 98.5549736 44.5896225 96.3674736 43.6521225 C95.33261483 41.33403886 94.3319322 39.00036952 93.3674736 36.6521225 C92.3774736 36.3221225 91.3874736 35.9921225 90.3674736 35.6521225 C87.3674736 32.20767805 87.3674736 32.20767805 87.3674736 29.6521225 C86.7074736 29.6521225 86.0474736 29.6521225 85.3674736 29.6521225 C83.41530926 27.69995815 82.51920715 26.12012297 81.3674736 23.6521225 C80.7074736 23.6521225 80.0474736 23.6521225 79.3674736 23.6521225 C78.3674736 22.6521225 77.3674736 21.6521225 76.3674736 20.6521225 C75.7074736 20.6521225 75.0474736 20.6521225 74.3674736 20.6521225 C74.3674736 19.9921225 74.3674736 19.3321225 74.3674736 18.6521225 C71.15776911 17.01670164 67.89939788 15.51180253 64.6174736 14.0271225 C63.63262985 13.58110687 62.6477861 13.13509125 61.6330986 12.67556 C60.88544235 12.33782562 60.1377861 12.00009125 59.3674736 11.6521225 C59.3674736 10.9921225 59.3674736 10.3321225 59.3674736 9.6521225 C58.76419235 9.51934906 58.1609111 9.38657562 57.5393486 9.24977875 C56.74012985 9.07317719 55.9409111 8.89657562 55.1174736 8.7146225 C54.32856735 8.54059906 53.5396611 8.36657562 52.7268486 8.18727875 C50.59868657 7.7045665 48.48214518 7.19049072 46.3674736 6.6521225 C46.3674736 5.9921225 46.3674736 5.3321225 46.3674736 4.6521225 C45.52442673 4.73591156 44.68137985 4.81970062 43.8127861 4.90602875 C42.71708298 5.00786469 41.62137985 5.10970062 40.4924736 5.2146225 C39.40192673 5.31903656 38.31137985 5.42345062 37.1877861 5.53102875 C34.3674736 5.6521225 34.3674736 5.6521225 32.3674736 4.6521225 C31.59847744 4.8155234 30.82948128 4.97892431 30.03718221 5.14727676 C27.15396232 5.69249779 25.47467124 5.43197873 22.65213585 4.72965431 C17.63256645 3.62714771 12.93775264 3.37550679 7.81287766 3.41161346 C6.90595189 3.40990461 5.99902612 3.40819577 5.06461775 3.40643513 C2.05529799 3.4031665 -0.95379392 3.41410028 -3.9630928 3.42507172 C-6.13202789 3.4256364 -8.30096336 3.42531816 -10.46989822 3.42418671 C-16.3369213 3.42361442 -22.2038621 3.43534866 -28.07086611 3.44933462 C-34.21009812 3.46186268 -40.34933216 3.46301412 -46.48857498 3.46538544 C-58.10469736 3.4715941 -69.72078195 3.48799664 -81.33688772 3.50808442 C-94.56539954 3.53046249 -107.79391319 3.54144165 -121.02243924 3.55147529 C-148.22582255 3.57236339 -175.42917235 3.60752746 -202.6325264 3.6521225 C-201.9725264 4.3121225 -201.3125264 4.9721225 -200.6325264 5.6521225 C-202.4269014 5.8377475 -202.4269014 5.8377475 -204.2575264 6.0271225 C-207.91354773 6.4744017 -211.15758532 7.41107211 -214.6325264 8.6521225 C-215.2925264 8.6521225 -215.9525264 8.6521225 -216.6325264 8.6521225 C-217.2925264 9.3121225 -217.9525264 9.9721225 -218.6325264 10.6521225 C-219.6225264 10.6521225 -220.6125264 10.6521225 -221.6325264 10.6521225 C-222.4369014 10.8171225 -223.2412764 10.9821225 -224.0700264 11.1521225 C-226.6325264 11.6521225 -226.6325264 11.6521225 -230.6325264 11.6521225 C-230.9625264 12.6421225 -231.2925264 13.6321225 -231.6325264 14.6521225 C-235.01120287 17.11764317 -236.33810842 17.6521225 -240.6325264 17.6521225 C-240.6325264 18.3121225 -240.6325264 18.9721225 -240.6325264 19.6521225 C-242.25805923 21.35893197 -243.92368634 23.02872445 -245.6325264 24.6521225 C-248.6325264 23.6521225 -248.6325264 23.6521225 -249.6325264 22.6521225 C-236.26591102 7.44183603 -215.01429486 2.2247682 -195.6325264 0.6521225 C-192.52762396 0.48259537 -189.4248455 0.3992858 -186.31612015 0.33571625 C-185.39698837 0.31484451 -184.4778566 0.29397278 -183.53087234 0.27246857 C-180.37735132 0.20485018 -177.22376651 0.14607997 -174.0700264 0.0896225 C-172.37606232 0.05835266 -172.37606232 0.05835266 -170.64787674 0.02645111 C-113.79040463 -0.9760261 -56.85943787 -0.79832059 0 0 Z M-249.6325264 24.6521225 C-248.9725264 25.3121225 -248.3125264 25.9721225 -247.6325264 26.6521225 C-248.3337764 27.1471225 -249.0350264 27.6421225 -249.7575264 28.1521225 C-252.78271198 30.78271866 -254.87409923 33.51512776 -257.20674515 36.7458725 C-258.83558747 38.92361237 -260.63544935 40.80866677 -262.6325264 42.6521225 C-262.6325264 36.53645758 -256.35092764 31.25544235 -252.1950264 27.0896225 C-251.3494014 26.2852475 -250.5037764 25.4808725 -249.6325264 24.6521225 Z " fill="#2E92FA" transform="translate(290.6325263977051,8.347877502441406)"/>
<path d="M0 0 C1.83691406 -0.00773438 1.83691406 -0.00773438 3.7109375 -0.015625 C5.61746094 0.00757813 5.61746094 0.00757813 7.5625 0.03125 C8.83351563 0.01578125 10.10453125 0.0003125 11.4140625 -0.015625 C12.63867188 -0.01046875 13.86328125 -0.0053125 15.125 0 C16.79755859 0.00676758 16.79755859 0.00676758 18.50390625 0.01367188 C22.33372201 0.66175692 23.87441329 1.74409376 26.5625 4.53125 C28.18969727 7.53173828 28.18969727 7.53173828 29.56640625 10.9765625 C29.81733536 11.59459747 30.06826447 12.21263245 30.32679749 12.84939575 C31.08797901 14.73748008 31.82764848 16.63278432 32.5625 18.53125 C32.97999512 19.59182617 33.39749023 20.65240234 33.82763672 21.74511719 C35.0744621 24.9573291 36.29113622 28.17956766 37.5 31.40625 C37.95310547 32.60934814 38.40621094 33.81244629 38.87304688 35.05200195 C39.87794544 37.72067907 40.8806763 40.39015982 41.88232422 43.06005859 C43.41014524 47.12987049 44.94696537 51.19624592 46.48500061 55.26220703 C47.84454216 58.85795265 49.2009158 62.45488832 50.55667114 66.05206299 C51.22123111 67.81396653 51.886801 69.57548951 52.55343628 71.33660889 C53.49722602 73.83126464 54.43755524 76.3271721 55.375 78.82421875 C55.66649429 79.60063721 55.95798859 80.37705566 56.25831604 81.17700195 C58.05989097 86.02955001 59.66655342 90.89008856 60.95703125 95.9074707 C61.43436681 97.7512731 61.43436681 97.7512731 63.5625 98.53125 C64.2819519 100.68180847 64.2819519 100.68180847 64.95263672 103.46557617 C66.38093976 109.01259088 68.22710382 114.2561279 70.3203125 119.58203125 C70.6688327 120.48447067 71.01735291 121.3869101 71.37643433 122.31669617 C72.84812739 126.12714945 74.33235454 129.93268126 75.81591797 133.73852539 C76.9053581 136.53875301 77.98800905 139.3415392 79.0703125 142.14453125 C79.40572052 142.99775467 79.74112854 143.85097809 80.08670044 144.73005676 C84.24292402 155.50174999 84.24292402 155.50174999 82.43359375 160.8984375 C78.4268056 164.57268949 75.4974053 164.11400977 70.21289062 163.8984375 C69.02888672 163.81851563 67.84488281 163.73859375 66.625 163.65625 C65.44486328 163.615 64.26472656 163.57375 63.04882812 163.53125 C53.07425621 163.01191745 53.07425621 163.01191745 48.5625 158.53125 C47.23217773 156.21630859 47.23217773 156.21630859 46.24609375 153.6796875 C45.87419922 152.74511719 45.50230469 151.81054688 45.11914062 150.84765625 C44.74982422 149.87699219 44.38050781 148.90632812 44 147.90625 C43.62681641 146.95878906 43.25363281 146.01132812 42.86914062 145.03515625 C41.7559202 142.20467233 40.65794152 139.36865543 39.5625 136.53125 C38.84931164 134.68845 38.13208337 132.84720662 37.41015625 131.0078125 C37.10215088 130.21713379 36.79414551 129.42645508 36.47680664 128.61181641 C35.53083935 126.2962558 35.53083935 126.2962558 33.5625 123.53125 C35.40698242 123.75756836 35.40698242 123.75756836 37.5625 124.53125 C38.8996582 126.43188477 38.8996582 126.43188477 40.05078125 128.91015625 C40.47182129 129.81523926 40.89286133 130.72032227 41.32666016 131.65283203 C43.28180187 136.20658959 45.04840444 140.81506857 46.75 145.46875 C47.42752148 147.31247606 48.10836852 149.15498439 48.79296875 150.99609375 C49.08582764 151.796521 49.37868652 152.59694824 49.68041992 153.42163086 C50.58291621 155.7685682 50.58291621 155.7685682 52.5625 158.53125 C55.37524752 158.94889382 55.37524752 158.94889382 58.6640625 158.82421875 C60.48164063 158.8097168 60.48164063 158.8097168 62.3359375 158.79492188 C63.60695313 158.76978516 64.87796875 158.74464844 66.1875 158.71875 C67.46625 158.70521484 68.745 158.69167969 70.0625 158.67773438 C73.22958282 158.64228196 76.39583541 158.59286441 79.5625 158.53125 C80.21674259 151.71385253 77.89687216 146.67128321 75.25 140.46875 C74.32047655 138.21899042 73.39485321 135.96761643 72.47265625 133.71484375 C71.99070801 132.53776855 71.50875977 131.36069336 71.01220703 130.14794922 C68.61020951 124.15549532 66.39421566 118.09781953 64.1875 112.03125 C63.96013153 111.40756531 63.73276306 110.78388062 63.49850464 110.14129639 C61.13093051 103.64637628 58.78266904 97.14453156 56.44012451 90.64054871 C55.23316566 87.2908017 54.02365751 83.94198107 52.8125 80.59375 C52.44910522 79.5889006 52.44910522 79.5889006 52.07836914 78.56375122 C47.17021788 65.01556267 42.01713324 51.56425996 36.81347656 38.12719727 C36.51304443 37.35103561 36.2126123 36.57487396 35.90307617 35.77519226 C35.31139084 34.24826856 34.71847623 32.72182058 34.12426758 31.19587708 C32.68108961 27.47858436 31.27184204 23.75379006 29.92480469 20.00048828 C29.53045731 18.9120034 29.53045731 18.9120034 29.12814331 17.80152893 C28.63867854 16.44424813 28.15685144 15.08417573 27.68460083 13.72080994 C26.22560578 9.69016735 24.70182252 6.48819809 21.5625 3.53125 C18.5507869 2.76533982 18.5507869 2.76533982 15.1875 2.8671875 C13.95515625 2.86074219 12.7228125 2.85429687 11.453125 2.84765625 C9.52726562 2.87666016 9.52726562 2.87666016 7.5625 2.90625 C6.27859375 2.88691406 4.9946875 2.86757812 3.671875 2.84765625 C1.82335937 2.85732422 1.82335937 2.85732422 -0.0625 2.8671875 C-1.18914062 2.87282715 -2.31578125 2.8784668 -3.4765625 2.88427734 C-6.55739545 3.29395536 -6.55739545 3.29395536 -8.63769531 5.58032227 C-10.75564838 9.05288042 -12.23318404 12.60181298 -13.609375 16.41015625 C-13.89263138 17.16969604 -14.17588776 17.92923584 -14.46772766 18.71179199 C-15.38262049 21.16945419 -16.28494479 23.63153359 -17.1875 26.09375 C-18.44808686 29.49097703 -19.71464734 32.8859706 -20.98046875 36.28125 C-21.28701889 37.10641617 -21.59356903 37.93158234 -21.90940857 38.78175354 C-24.01024844 44.42694966 -26.20314604 50.02525499 -28.5 55.59375 C-33.75162087 68.45027868 -38.28185929 81.59036223 -42.96820068 94.66021729 C-45.47469159 101.64638628 -48.00854786 108.62230682 -50.56219482 115.59136963 C-51.24254038 117.44838878 -51.92132774 119.30597857 -52.60009766 121.16357422 C-54.64766687 126.74626292 -56.72684238 132.31192607 -58.8984375 137.84765625 C-59.46534302 139.29893921 -59.46534302 139.29893921 -60.04370117 140.77954102 C-60.73762681 142.54545565 -61.44018088 144.30801787 -62.15356445 146.06616211 C-64.30903318 151.54485946 -65.36275926 155.75547223 -63.4375 161.53125 C-64.4275 161.20125 -65.4175 160.87125 -66.4375 160.53125 C-68.37242175 156.6614065 -67.84905416 152.97068131 -66.69631958 148.93893433 C-65.59599959 145.78779553 -64.42315005 142.67296478 -63.22265625 139.55859375 C-62.78037186 138.38339172 -62.33808746 137.2081897 -61.88240051 135.99737549 C-60.68146109 132.81183334 -59.47071315 129.63036001 -58.25551605 126.45025253 C-56.98703402 123.12338694 -55.73132136 119.79171458 -54.47509766 116.46020508 C-52.94375862 112.40066449 -51.41173979 108.3413952 -49.87445068 104.28410339 C-45.6277596 93.07226261 -41.48063912 81.82527039 -37.35702515 70.56759644 C-31.08295656 53.45565041 -24.65393592 36.41882947 -17.68164062 19.57714844 C-16.8194895 17.46643465 -15.98674437 15.34356133 -15.17773438 13.21191406 C-14.76330078 12.14424805 -14.34886719 11.07658203 -13.921875 9.9765625 C-13.38385254 8.54981201 -13.38385254 8.54981201 -12.83496094 7.09423828 C-9.77245355 1.47750129 -6.2135954 0.02514172 0 0 Z M76.5625 163.53125 C77.2225 163.53125 77.8825 163.53125 78.5625 163.53125 C78.2325 164.19125 77.9025 164.85125 77.5625 165.53125 C77.2325 164.87125 76.9025 164.21125 76.5625 163.53125 Z " fill="#0357DE" transform="translate(223.4375,173.46875)"/>
<path d="M0 0 C1.32 0 2.64 0 4 0 C4 5.94 4 11.88 4 18 C2.27136719 18.03738281 0.54273438 18.07476562 -1.23828125 18.11328125 C-28.68070002 18.83098785 -53.52337308 20.6958804 -73.78564453 41.3125 C-87.28252082 55.63100252 -93.48477402 73.43909282 -93.43359375 92.89453125 C-93.44145653 94.68016731 -93.44145653 94.68016731 -93.44947815 96.50187683 C-93.45585977 99.00360337 -93.4546119 101.50536007 -93.44604492 104.00708008 C-93.43754517 107.7923847 -93.46633799 111.57617231 -93.49804688 115.36132812 C-93.54004909 129.85215187 -93.26065435 142.67006616 -86.625 155.8125 C-82.42682614 164.80565198 -89.41731768 179.20048516 -91.9375 188.375 C-93.44685778 193.88943511 -94.9487157 199.4057751 -96.43621826 204.92614746 C-96.95351695 206.82901363 -97.48602528 208.72772797 -98.02001953 210.62597656 C-98.44516846 212.1917041 -98.44516846 212.1917041 -98.87890625 213.7890625 C-99.12326416 214.6651416 -99.36762207 215.5412207 -99.61938477 216.44384766 C-100.08085116 219.54298372 -99.73466502 221.96416342 -99 225 C-96.80370739 227.44032512 -95.47092393 227.93442831 -92.22265625 228.38671875 C-87.98539563 227.87824748 -86.00185874 225.85212518 -83.125 222.9375 C-82.06835315 221.91730047 -81.01106145 220.89776841 -79.953125 219.87890625 C-79.44587891 219.38148926 -78.93863281 218.88407227 -78.41601562 218.37158203 C-76.6258211 216.63756257 -74.76461701 214.99960974 -72.875 213.375 C-69.90872799 210.80177438 -66.97889366 208.19218215 -64.0625 205.5625 C-63.21945313 204.81355469 -62.37640625 204.06460938 -61.5078125 203.29296875 C-59.85371552 201.7805779 -58.24200198 200.22030843 -56.6796875 198.61328125 C-51.23475776 193.17783745 -51.23475776 193.17783745 -47.61328125 192.65625 C-43.50829974 193.03621523 -39.7158643 194.20200114 -36 196 C-36 196.33 -36 196.66 -36 197 C-37.33804688 196.82210937 -37.33804688 196.82210937 -38.703125 196.640625 C-40.45882812 196.44726562 -40.45882812 196.44726562 -42.25 196.25 C-43.41015625 196.11078125 -44.5703125 195.9715625 -45.765625 195.828125 C-49.09669165 195.67393386 -49.09669165 195.67393386 -51.296875 197.984375 C-52.13992187 198.98210937 -52.13992187 198.98210937 -53 200 C-53.66 200 -54.32 200 -55 200 C-55 200.66 -55 201.32 -55 202 C-56.6796875 203.7265625 -56.6796875 203.7265625 -58.875 205.625 C-59.59429687 206.25664062 -60.31359375 206.88828125 -61.0546875 207.5390625 C-63 209 -63 209 -65 209 C-65 209.66 -65 210.32 -65 211 C-66.51323762 212.21716939 -68.02789859 213.4326854 -69.5546875 214.6328125 C-71.2315589 216.01765834 -71.2315589 216.01765834 -72 218.6875 C-72.33 219.450625 -72.66 220.21375 -73 221 C-74.36125 221.433125 -74.36125 221.433125 -75.75 221.875 C-81.20045614 223.76169635 -83.88666837 228.33000256 -87 233 C-93.45148479 232.0394456 -97.35329369 230.64670631 -102 226 C-105.36119875 219.2776025 -101.428025 209.37749574 -99.4375 202.5625 C-99.18508545 201.68722656 -98.9326709 200.81195313 -98.67260742 199.91015625 C-97.08679693 194.48987779 -95.38328215 189.12072476 -93.61328125 183.7578125 C-88.04641417 168.30960645 -88.04641417 168.30960645 -90.375 152.6875 C-91.57271689 150.45261125 -92.78060407 148.22313451 -94 146 C-96.28295876 138.93243384 -96.32233437 132.15575169 -96.3359375 124.76953125 C-96.3425943 123.50211594 -96.3492511 122.23470062 -96.35610962 120.92887878 C-96.3662078 118.25346776 -96.37179627 115.57846348 -96.37060547 112.90307617 C-96.37040303 109.51208424 -96.39764964 106.12193747 -96.43214989 102.73114491 C-96.46004175 99.4523077 -96.45857548 96.17347069 -96.4609375 92.89453125 C-96.47530853 91.69617142 -96.48967957 90.49781158 -96.50448608 89.26313782 C-96.44425388 77.96289659 -93.41414997 67.82090845 -88.25 57.8125 C-87.90493408 57.13815918 -87.55986816 56.46381836 -87.2043457 55.76904297 C-78.33330055 38.95332742 -63.10995191 25.77610556 -44.98046875 19.84375 C-29.31701354 15.40953463 -14.19843343 15.69286678 2 16 C2 11.05 2 6.1 2 1 C1.01 0.505 1.01 0.505 0 0 Z " fill="#065BDF" transform="translate(198,83)"/>
<path d="M0 0 C0.33 0 0.66 0 1 0 C1.33 2.64 1.66 5.28 2 8 C2.33 8 2.66 8 3 8 C3.04695624 32.30660441 3.0821036 56.61320191 3.10362434 80.91984272 C3.11388741 92.20870299 3.12785131 103.4975349 3.15087891 114.78637695 C3.17096644 124.63870124 3.18375242 134.49100496 3.18817699 144.34334916 C3.19075868 149.54827976 3.19671979 154.75315158 3.21146011 159.95806313 C3.35842705 214.06896226 3.35842705 214.06896226 -1 236 C-2.75593508 232.72543508 -3.18465553 230.91831151 -2.79296875 227.1953125 C-1.66166906 216.04719727 -0.79409623 204.92098767 -0.43188477 193.72021484 C-0.39054948 192.44687979 -0.34921419 191.17354473 -0.30662632 189.86162376 C0.21088986 172.65129471 0.12775683 155.43293043 0.10139394 138.2167325 C0.09502712 133.33617076 0.0945463 128.45560798 0.09336853 123.57504272 C0.09029367 114.38559243 0.08213367 105.19615441 0.07201904 96.00670946 C0.0607365 85.52253898 0.05531726 75.03836784 0.05032361 64.55419278 C0.03994658 43.03612174 0.02242388 21.51806165 0 0 Z " fill="#0144DC" transform="translate(402,92)"/>
<path d="M0 0 C0.69367172 -0.00014603 1.38734344 -0.00029205 2.10203552 -0.0004425 C4.36362996 0.00024654 6.62513895 0.007991 8.88671875 0.01586914 C10.46712194 0.01773691 12.04752571 0.01915912 13.62792969 0.02015686 C17.76411571 0.02395377 21.90026598 0.03375957 26.03643799 0.04486084 C30.26647457 0.05513607 34.496517 0.05966751 38.7265625 0.06469727 C47.0091309 0.07538468 55.29167036 0.09242671 63.57421875 0.11352539 C63.57421875 0.44352539 63.57421875 0.77352539 63.57421875 1.11352539 C62.34298782 1.12232475 62.34298782 1.12232475 61.08688354 1.13130188 C53.29149207 1.189586 45.49640732 1.26186144 37.70129204 1.3492403 C33.69525093 1.39366876 29.68930511 1.43298247 25.68310547 1.45996094 C21.80549382 1.48627247 17.92825451 1.52686274 14.05087662 1.57671165 C12.58321954 1.59319468 11.11549834 1.60482296 9.6477623 1.6111393 C-7.87676455 1.6940674 -21.96584015 4.25058218 -35.05859375 16.52758789 C-44.52382094 26.86748954 -46.74029333 38.00317048 -46.7265625 51.58227539 C-46.73084763 52.5432312 -46.73513275 53.50418701 -46.73954773 54.4942627 C-46.74525004 56.51105975 -46.74582185 58.52787735 -46.74145508 60.54467773 C-46.73828929 63.60574787 -46.76182646 66.66585509 -46.78710938 69.72680664 C-46.78938243 71.69946169 -46.79008583 73.6721193 -46.7890625 75.64477539 C-46.79827225 76.54611206 -46.80748199 77.44744873 -46.81697083 78.37609863 C-46.72792776 90.78310196 -42.16958169 101.33778997 -33.67578125 110.36352539 C-26.44971611 117.15247506 -18.32739414 120.77587154 -9.015625 123.93774414 C-8.16097656 124.32575195 -7.30632812 124.71375977 -6.42578125 125.11352539 C-5.20309326 128.78158937 -5.79264548 129.85817809 -7.078125 133.43774414 C-7.44228516 134.46577148 -7.80644531 135.49379883 -8.18164062 136.55297852 C-8.57158203 137.62483398 -8.96152344 138.69668945 -9.36328125 139.80102539 C-9.94239258 141.42621094 -9.94239258 141.42621094 -10.53320312 143.08422852 C-11.48930655 145.76367885 -12.45377982 148.43980979 -13.42578125 151.11352539 C-13.75578125 151.11352539 -14.08578125 151.11352539 -14.42578125 151.11352539 C-13.98545938 144.50869741 -12.52435789 138.93665108 -10.265625 132.71508789 C-9.27217549 130.09333208 -9.27217549 130.09333208 -9.42578125 127.11352539 C-10.23660156 126.84540039 -11.04742187 126.57727539 -11.8828125 126.30102539 C-25.75941379 121.39009781 -38.75003994 112.64980363 -45.42578125 99.11352539 C-51.11568584 85.43476486 -50.68866676 71.65612806 -50.42578125 57.11352539 C-50.41321289 56.27563477 -50.40064453 55.43774414 -50.38769531 54.57446289 C-50.20324871 44.84772767 -49.90835939 35.96411099 -45.42578125 27.11352539 C-44.99136719 26.25500977 -44.55695313 25.39649414 -44.109375 24.51196289 C-38.13937987 13.74319783 -29.6234001 6.55652531 -18.30078125 1.80102539 C-12.22127961 0.34723152 -6.23312417 -0.01113058 0 0 Z " fill="#1569E1" transform="translate(179.42578125,127.886474609375)"/>
<path d="M0 0 C0.33 0 0.66 0 1 0 C1.00634791 1.46158633 1.00634791 1.46158633 1.01282406 2.95269966 C1.11639812 26.7526112 1.22519214 50.55249462 1.33933926 74.35235786 C1.39442314 85.8621743 1.44786186 97.37199382 1.49731445 108.88183594 C1.54046313 118.9234724 1.58681386 128.96508832 1.63687855 139.00669277 C1.66323512 144.31483015 1.68807743 149.62296412 1.70907402 154.93112564 C1.72896201 159.94615898 1.75319051 164.96115413 1.78049088 169.97615242 C1.78969439 171.79876941 1.79742588 173.62139466 1.80341911 175.44402504 C1.83661006 185.25203471 2.02903221 195.03705571 2.46522522 204.83615112 C2.50567253 205.75017106 2.54611983 206.664191 2.58779281 207.60590851 C2.90812185 214.26335045 3.52018691 220.80739001 4.6875 227.375 C4.86120117 228.37047852 5.03490234 229.36595703 5.21386719 230.39160156 C7.99290319 245.29821583 13.23491243 258.08989104 23.3046875 269.64453125 C23.86414063 270.42183594 24.42359375 271.19914062 25 272 C24.67 272.99 24.34 273.98 24 275 C1.94769409 250.44639087 -1.22528775 220.82165052 -1.09375 188.94921875 C-1.08989169 187.12985787 -1.08628278 185.31049645 -1.08288574 183.49113464 C-1.06648751 176.66069953 -1.0341724 169.83036654 -1 163 C-0.99648277 162.29555032 -0.99296555 161.59110064 -0.98934174 160.86530399 C-0.86621156 136.34525663 -0.71289604 111.82539971 -0.55461884 87.30555809 C-0.49306243 77.7619098 -0.43310503 68.21825165 -0.37324238 58.67459261 C-0.25052957 39.1163841 -0.12593077 19.55818804 0 0 Z " fill="#0453DB" transform="translate(12,97)"/>
<path d="M0 0 C0.99 0.33 1.98 0.66 3 1 C7.72242647 10.56802526 6.45357448 22.99173404 6.39111328 33.32666016 C6.37503579 36.49295136 6.39102037 39.65796637 6.41015625 42.82421875 C6.42291379 54.94400424 6.08571503 65.48849718 0.875 76.625 C-1.65739395 84.36216341 3.83099237 93.05692362 7 100 C20.71191236 88.81107951 26.26563278 74.81508367 30 58 C30.66 58 31.32 58 32 58 C32.33 49.42 32.66 40.84 33 32 C33.33 32 33.66 32 34 32 C34.73215326 58.46598442 29.86066836 79.17969552 12.6015625 100.00390625 C10.95752379 101.90917959 10.95752379 101.90917959 10 104 C7.734375 104.04296875 7.734375 104.04296875 5 103 C3.29034739 100.28247704 2.30505059 97.33335113 1.25 94.3125 C0.94707031 93.50876953 0.64414062 92.70503906 0.33203125 91.87695312 C-3.98168059 80.15324294 -3.98168059 80.15324294 -1.125 73.9375 C4.77663262 60.87549494 3.11780315 44.16281641 3.23117065 30.09564209 C3.24951754 28.11459471 3.28191793 26.13369317 3.31469727 24.15283203 C3.34450644 15.70545341 2.27607672 8.13534361 0 0 Z " fill="#055EE1" transform="translate(283,156)"/>
<path d="M0 0 C1.31551316 3.94653947 0.34480816 5.40284 -1.1328125 9.2578125 C-1.36652557 9.87913055 -1.60023865 10.50044861 -1.84103394 11.14059448 C-2.59363295 13.13883164 -3.35819471 15.13217541 -4.125 17.125 C-8.28311551 27.97926606 -11.7074982 38.80549388 -15 50 C-2.79 50 9.42 50 22 50 C19.53304371 41.74222862 19.53304371 41.74222862 16.703125 33.66015625 C16.30222656 32.57798828 15.90132812 31.49582031 15.48828125 30.38085938 C14.65189227 28.13949522 13.81062073 25.89994787 12.96484375 23.66210938 C12.56910156 22.58896484 12.17335937 21.51582031 11.765625 20.41015625 C11.40243164 19.44215088 11.03923828 18.47414551 10.66503906 17.47680664 C10 15 10 15 11 12 C13.12618528 15.18927792 14.2520726 18.11622635 15.56640625 21.71484375 C15.92483864 22.69306847 15.92483864 22.69306847 16.29051208 23.6910553 C16.79411037 25.06800741 17.29578195 26.44566551 17.7956543 27.82397461 C18.55904486 29.92797719 19.32881313 32.02956007 20.09960938 34.13085938 C22.81506963 41.56924096 22.81506963 41.56924096 24 45 C24.41560181 46.10903687 24.41560181 46.10903687 24.83959961 47.24047852 C25 49 25 49 24.08007812 50.72509766 C20.81892148 52.72389578 17.43109228 52.42717655 13.71875 52.3984375 C12.5039093 52.40274277 12.5039093 52.40274277 11.26452637 52.40713501 C9.55313416 52.40917542 7.84171862 52.40364709 6.13037109 52.39111328 C3.5095611 52.37505857 0.89029323 52.39096194 -1.73046875 52.41015625 C-3.39323257 52.40817381 -5.05599544 52.40433013 -6.71875 52.3984375 C-7.50318481 52.40451019 -8.28761963 52.41058289 -9.0958252 52.4168396 C-14.5417146 52.34637592 -14.5417146 52.34637592 -17.01757812 50.47509766 C-17.34177734 49.98831543 -17.66597656 49.5015332 -18 49 C-15.79373602 40.0491162 -12.7969853 31.42519241 -9.70166016 22.75366211 C-8.86593719 20.41210755 -8.03602575 18.06855356 -7.20703125 15.72460938 C-6.67741307 14.23165382 -6.14747708 12.73881096 -5.6171875 11.24609375 C-5.24531815 10.19777626 -5.24531815 10.19777626 -4.86593628 9.12828064 C-3.11736061 4.23472122 -3.11736061 4.23472122 -2 2 C-1.34 2 -0.68 2 0 2 C0 1.34 0 0.68 0 0 Z " fill="#0659DC" transform="translate(228,217)"/>
<path d="M0 0 C2.56667557 2.56667557 3.55050385 5.44855716 4.85546875 8.765625 C5.25431023 9.77215118 5.25431023 9.77215118 5.66120911 10.79901123 C6.22134958 12.22015207 6.77845907 13.64249075 7.33276367 15.06591797 C8.1810195 17.23344058 9.0500013 19.39187946 9.91992188 21.55078125 C10.46224129 22.93438551 11.00329819 24.31848542 11.54296875 25.703125 C11.80434128 26.34397034 12.06571381 26.98481567 12.33500671 27.64508057 C13.92508814 31.81787601 14.38282225 34.72412379 13 39 C11.29272461 41.35546875 11.29272461 41.35546875 9 43 C6.33032227 43.42578125 6.33032227 43.42578125 3.31640625 43.3125 C2.22392578 43.27253906 1.13144531 43.23257813 0.00585938 43.19140625 C-1.13044922 43.12824219 -2.26675781 43.06507813 -3.4375 43 C-4.56994141 42.96777344 -5.70238281 42.93554688 -6.86914062 42.90234375 C-11.29286956 42.69901384 -14.96362288 42.48310288 -19 40.6015625 C-22.10369389 36.56433568 -23.7609846 32.10987294 -25.5625 27.375 C-26.12227539 25.95380859 -26.12227539 25.95380859 -26.69335938 24.50390625 C-27.8065798 21.67342233 -28.90455848 18.83740543 -30 16 C-30.71318836 14.1572 -31.43041663 12.31595662 -32.15234375 10.4765625 C-32.61435181 9.29054443 -32.61435181 9.29054443 -33.08569336 8.08056641 C-34.03166065 5.7650058 -34.03166065 5.7650058 -36 3 C-34.15551758 3.22631836 -34.15551758 3.22631836 -32 4 C-30.6628418 5.90063477 -30.6628418 5.90063477 -29.51171875 8.37890625 C-29.09067871 9.28398926 -28.66963867 10.18907227 -28.23583984 11.12158203 C-26.28069813 15.67533959 -24.51409556 20.28381857 -22.8125 24.9375 C-22.13497852 26.78122606 -21.45413148 28.62373439 -20.76953125 30.46484375 C-20.47667236 31.265271 -20.18381348 32.06569824 -19.88208008 32.89038086 C-18.97958379 35.2373182 -18.97958379 35.2373182 -17 38 C-14.18725248 38.41764382 -14.18725248 38.41764382 -10.8984375 38.29296875 C-9.68671875 38.28330078 -8.475 38.27363281 -7.2265625 38.26367188 C-5.95554687 38.23853516 -4.68453125 38.21339844 -3.375 38.1875 C-2.09625 38.17396484 -0.8175 38.16042969 0.5 38.14648438 C3.66708282 38.11103196 6.83333541 38.06161441 10 38 C10.83612647 30.73615126 7.83091364 25.00598475 5 18.4375 C4.05278015 16.23201378 3.11492037 14.02247866 2.1875 11.80859375 C1.76855469 10.83720459 1.34960938 9.86581543 0.91796875 8.86499023 C-0.07765227 5.75764643 -0.16811008 3.24242314 0 0 Z M7 43 C7.66 43 8.32 43 9 43 C8.67 43.66 8.34 44.32 8 45 C7.67 44.34 7.34 43.68 7 43 Z " fill="#1A62DD" transform="translate(293,294)"/>
<path d="M0 0 C1.93552734 0.00676758 1.93552734 0.00676758 3.91015625 0.01367188 C7.06515375 0.02535705 10.22005137 0.04173956 13.375 0.0625 C13.375 0.3925 13.375 0.7225 13.375 1.0625 C12.67004395 1.08755615 11.96508789 1.1126123 11.23876953 1.13842773 C7.99238553 1.25568042 4.74620183 1.3778115 1.5 1.5 C-0.16289062 1.55897461 -0.16289062 1.55897461 -1.859375 1.61914062 C-8.4815699 1.87234219 -15.04096045 2.30351949 -21.625 3.0625 C-20.965 3.7225 -20.305 4.3825 -19.625 5.0625 C-21.419375 5.248125 -21.419375 5.248125 -23.25 5.4375 C-26.90602133 5.88477921 -30.15005893 6.82144962 -33.625 8.0625 C-34.285 8.0625 -34.945 8.0625 -35.625 8.0625 C-36.285 8.7225 -36.945 9.3825 -37.625 10.0625 C-38.615 10.0625 -39.605 10.0625 -40.625 10.0625 C-41.429375 10.2275 -42.23375 10.3925 -43.0625 10.5625 C-45.625 11.0625 -45.625 11.0625 -49.625 11.0625 C-49.955 12.0525 -50.285 13.0425 -50.625 14.0625 C-54.00367647 16.52802067 -55.33058202 17.0625 -59.625 17.0625 C-59.625 17.7225 -59.625 18.3825 -59.625 19.0625 C-61.25053283 20.76930947 -62.91615995 22.43910195 -64.625 24.0625 C-67.625 23.0625 -67.625 23.0625 -68.625 22.0625 C-56.0796913 7.78680389 -35.82920098 1.88433268 -17.47387695 0.22802734 C-11.65300666 -0.11018073 -5.8283629 -0.03901582 0 0 Z M-68.625 24.0625 C-67.965 24.7225 -67.305 25.3825 -66.625 26.0625 C-67.32625 26.5575 -68.0275 27.0525 -68.75 27.5625 C-71.77518558 30.19309616 -73.86657283 32.92550526 -76.19921875 36.15625 C-77.82806107 38.33398987 -79.62792296 40.21904427 -81.625 42.0625 C-81.625 35.94683508 -75.34340124 30.66581986 -71.1875 26.5 C-70.341875 25.695625 -69.49625 24.89125 -68.625 24.0625 Z " fill="#1A8CFA" transform="translate(109.625,8.9375)"/>
<path d="M0 0 C0.33 0 0.66 0 1 0 C1.33 2.64 1.66 5.28 2 8 C2.33 8 2.66 8 3 8 C3 52.88 3 97.76 3 144 C2.67 144 2.34 144 2 144 C1.18213922 110.62812459 0.78014426 77.25453899 0.4375 43.875 C0.4263982 42.7937661 0.4152964 41.7125322 0.40385818 40.59853363 C0.26527509 27.06572772 0.13077873 13.53288349 0 0 Z " fill="#0356E3" transform="translate(402,92)"/>
<path d="M0 0 C4.14209674 2.93789955 7.28721191 6.52179198 8.89453125 11.34375 C9.63942917 17.93077587 9.45649415 23.18553956 5.421875 28.6171875 C1.86711371 32.63561331 -0.68479378 34.9340492 -6.12890625 35.85546875 C-12.98007969 36.21479603 -17.85656472 35.3987201 -23.29296875 31.1015625 C-27.81340179 26.71752184 -29.31943116 23.17991593 -29.60546875 16.84375 C-29.36004862 10.87186017 -27.92115187 7.23657512 -23.6796875 2.87890625 C-16.46307202 -3.55451065 -8.42225788 -4.65134557 0 0 Z M-23.71875 5.0390625 C-26.92202916 9.49658337 -27.84200126 13.49678342 -27.515625 18.953125 C-26.56011962 24.52235636 -24.06758958 27.95514269 -19.54296875 31.28125 C-14.55033447 34.07043116 -9.67569853 34.48532325 -4.10546875 33.34375 C0.24987465 31.24487563 3.07098435 28.47612698 5.89453125 24.59375 C7.68780259 18.76561815 7.98653057 13.56974861 5.26953125 8.03125 C0.83309119 3.01106782 -2.85136621 -0.3804786 -9.79296875 -0.96875 C-15.39777898 -0.85541744 -19.83128802 0.95393296 -23.71875 5.0390625 Z " fill="#045FE1" transform="translate(180.10546875,159.65625)"/>
<path d="M0 0 C17.82361034 1.04844767 34.65147743 12.03739139 46.625 24.6875 C57.86034361 37.66968149 66.62468485 54.50882433 66 72 C65.67 72 65.34 72 65 72 C65 70.02 65 68.04 65 66 C64.34 66 63.68 66 63 66 C62.79246094 65.00742188 62.58492188 64.01484375 62.37109375 62.9921875 C57.84436752 42.55225803 47.42079349 25.67803253 29.78125 13.83984375 C20.50554951 8.11178466 10.60730221 4.50670077 0 2 C0 1.34 0 0.68 0 0 Z " fill="#0262E7" transform="translate(250,100)"/>
<path d="M0 0 C0.69367172 -0.00014603 1.38734344 -0.00029205 2.10203552 -0.0004425 C4.36362996 0.00024654 6.62513895 0.007991 8.88671875 0.01586914 C10.46712194 0.01773691 12.04752571 0.01915912 13.62792969 0.02015686 C17.76411571 0.02395377 21.90026598 0.03375957 26.03643799 0.04486084 C30.26647457 0.05513607 34.496517 0.05966751 38.7265625 0.06469727 C47.0091309 0.07538468 55.29167036 0.09242671 63.57421875 0.11352539 C63.57421875 0.44352539 63.57421875 0.77352539 63.57421875 1.11352539 C62.34298782 1.12232475 62.34298782 1.12232475 61.08688354 1.13130188 C53.29149207 1.189586 45.49640732 1.26186144 37.70129204 1.3492403 C33.69525093 1.39366876 29.68930511 1.43298247 25.68310547 1.45996094 C21.80549382 1.48627247 17.92825451 1.52686274 14.05087662 1.57671165 C12.58321954 1.59319468 11.11549834 1.60482296 9.6477623 1.6111393 C-7.87676455 1.6940674 -21.96584015 4.25058218 -35.05859375 16.52758789 C-41.57424852 23.64534938 -45.38688105 31.53020107 -46.42578125 41.11352539 C-48.42578125 38.11352539 -48.42578125 38.11352539 -48.23828125 34.82446289 C-45.72951972 23.36617705 -38.31101512 13.9394295 -28.83984375 7.30102539 C-19.54270153 1.49380142 -10.84667424 -0.01936906 0 0 Z " fill="#0466E7" transform="translate(179.42578125,127.886474609375)"/>
<path d="M0 0 C1.32 0 2.64 0 4 0 C4 5.94 4 11.88 4 18 C2.27136719 18.03738281 0.54273438 18.07476562 -1.23828125 18.11328125 C-27.24440507 18.79342416 -48.681262 20.75246296 -70 37 C-70 36.01 -70 35.02 -70 34 C-49.5359473 15.88258404 -23.89119269 15.50908553 2 16 C2 11.05 2 6.1 2 1 C1.01 0.505 1.01 0.505 0 0 Z " fill="#0469EC" transform="translate(198,83)"/>
<path d="M0 0 C2.32852173 -0.36076355 2.32852173 -0.36076355 5.27587891 -0.34057617 C6.92736435 -0.34023628 6.92736435 -0.34023628 8.61221313 -0.33988953 C9.80494843 -0.32440567 10.99768372 -0.30892181 12.2265625 -0.29296875 C13.44451508 -0.28872391 14.66246765 -0.28447906 15.91732788 -0.28010559 C19.82010704 -0.26326831 23.72237604 -0.22560595 27.625 -0.1875 C30.26561756 -0.17245974 32.90624319 -0.15877019 35.546875 -0.14648438 C42.03142504 -0.11334822 48.51567608 -0.06309861 55 0 C55 0.66 55 1.32 55 2 C37.18 2 19.36 2 1 2 C-0.66839095 7.00517285 -2.33501141 12.00855347 -3.97265625 17.0234375 C-4.66920969 19.14064512 -5.36582517 21.25783232 -6.0625 23.375 C-6.41376953 24.45394531 -6.76503906 25.53289062 -7.12695312 26.64453125 C-7.63838867 28.19333984 -7.63838867 28.19333984 -8.16015625 29.7734375 C-8.46574463 30.70591309 -8.77133301 31.63838867 -9.08618164 32.59912109 C-10 35 -10 35 -12 38 C-12.99 37.67 -13.98 37.34 -15 37 C-14.01 36.505 -14.01 36.505 -13 36 C-12.22774861 34.06004358 -12.22774861 34.06004358 -11.62890625 31.68359375 C-9.94296562 25.73140736 -7.96785938 19.9049627 -5.9375 14.0625 C-5.58623047 13.03576172 -5.23496094 12.00902344 -4.87304688 10.95117188 C-4.53208984 9.96826172 -4.19113281 8.98535156 -3.83984375 7.97265625 C-3.53425537 7.08843994 -3.22866699 6.20422363 -2.91381836 5.29321289 C-2 3 -2 3 0 0 Z " fill="#025FDC" transform="translate(201,296)"/>
<path d="M0 0 C0.495 0.99 0.495 0.99 1 2 C0.27296875 2.58394531 0.27296875 2.58394531 -0.46875 3.1796875 C-7.19157329 8.79065924 -14.5086128 15.06601704 -16 24 C-17.17982499 26.44967679 -18.58426557 28.67088852 -20 31 C-20.66 31 -21.32 31 -22 31 C-22.47970123 32.74985354 -22.95873924 34.49988891 -23.4375 36.25 C-23.83775391 37.71179688 -23.83775391 37.71179688 -24.24609375 39.203125 C-24.49488281 40.12609375 -24.74367188 41.0490625 -25 42 C-25.16951172 42.62390625 -25.33902344 43.2478125 -25.51367188 43.890625 C-26.02650344 46.11495469 -26.30502421 48.27623892 -26.53515625 50.546875 C-26.66567383 51.81337891 -26.66567383 51.81337891 -26.79882812 53.10546875 C-26.88583984 53.97816406 -26.97285156 54.85085937 -27.0625 55.75 C-27.15337891 56.63816406 -27.24425781 57.52632812 -27.33789062 58.44140625 C-27.56118638 60.6273542 -27.78179853 62.81353865 -28 65 C-28.33 65 -28.66 65 -29 65 C-29 61.7 -29 58.4 -29 55 C-29.33 58.3 -29.66 61.6 -30 65 C-30.66 65 -31.32 65 -32 65 C-29.95727604 40.36535876 -22.23282361 20.13527325 -4.54296875 2.27734375 C-3 1 -3 1 0 0 Z " fill="#1A84F5" transform="translate(43,30)"/>
<path d="M0 0 C6.51784619 1.91040319 10.23720956 4.27118411 14 10 C16.1088303 16.32649089 15.80751757 23.94167261 13 30 C11.6875 32.3125 11.6875 32.3125 10 34 C7.525 34.495 7.525 34.495 5 35 C4.67 39.62 4.34 44.24 4 49 C14.56 49 25.12 49 36 49 C36 49.33 36 49.66 36 50 C24.78 50.33 13.56 50.66 2 51 C0.16303121 45.48909363 0.79587197 39.62367487 2 34 C3.63036109 32.05192751 5.05322173 31.17179128 7.27734375 29.984375 C10.24093489 28.29089435 10.96750587 26.15821735 12 23 C12.72803184 17.29879289 12.28565992 12.87184057 9 8 C5.91114228 5.07371374 3.01549231 3.37674022 -1 2 C-0.67 1.34 -0.34 0.68 0 0 Z " fill="#117CF1" transform="translate(211,50)"/>
<path d="M0 0 C0.33 0 0.66 0 1 0 C0.43437201 6.20269501 -0.59565272 11.94869945 -2.25 17.9453125 C-2.46817383 18.75942596 -2.68634766 19.57353943 -2.91113281 20.412323 C-3.60123418 22.9849313 -4.2998669 25.55510535 -5 28.125 C-5.69924381 30.7022543 -6.39647533 33.27999639 -7.08886719 35.85910034 C-7.51761897 37.45522306 -7.95032354 39.05029127 -8.38769531 40.64407349 C-10.77690013 48.67953937 -10.77690013 48.67953937 -10.1875 56.8125 C-6.77521428 60.22478572 -2.66331896 60.41380418 2 61 C1.67 61.66 1.34 62.32 1 63 C-6.76785714 63.66964286 -6.76785714 63.66964286 -10.4375 60.625 C-13.95595346 57.0207306 -13.95595346 57.0207306 -14.08984375 53.91796875 C-13.54475972 44.14838567 -10.66607981 35.15808723 -7.85253906 25.85351562 C-6.13794921 20.11464786 -4.54028323 14.34170498 -2.91723633 8.57641602 C-2.68029053 7.74295654 -2.44334473 6.90949707 -2.19921875 6.05078125 C-1.99127686 5.31512939 -1.78333496 4.57947754 -1.5690918 3.8215332 C-1 2 -1 2 0 0 Z " fill="#0351DA" transform="translate(109,251)"/>
<path d="M0 0 C0.99 0.845625 1.98 1.69125 3 2.5625 C3.64710938 3.11035156 4.29421875 3.65820312 4.9609375 4.22265625 C6.26827645 5.36219499 7.54793644 6.53477639 8.7890625 7.74609375 C14.45745785 13.16122038 20.82208311 15.99401958 28 19 C29.43757468 19.62482821 30.87509291 20.24978635 32.3125 20.875 C33.199375 21.24625 34.08625 21.6175 35 22 C32.85406445 30.54884894 30.0505873 38.74050475 27 47 C26.67 47 26.34 47 26 47 C26.44032187 40.39517202 27.90142336 34.82312569 30.16015625 28.6015625 C31.15360576 25.97980668 31.15360576 25.97980668 31 23 C30.18917969 22.731875 29.37835938 22.46375 28.54296875 22.1875 C17.79963795 18.38543648 6.95585376 12.37734551 0 3 C0 2.01 0 1.02 0 0 Z " fill="#0051DB" transform="translate(139,232)"/>
<path d="M0 0 C0.33 0 0.66 0 1 0 C1.33 2.31 1.66 4.62 2 7 C2.33 7 2.66 7 3 7 C3.3084796 16.27152563 2.78890755 25.44255588 2.125 34.6875 C2.04652832 35.82678955 1.96805664 36.9660791 1.88720703 38.13989258 C1.35450677 45.20047153 0.42414633 52.06362106 -1 59 C-2.88860966 55.83092301 -3.1766621 53.84233357 -2.79296875 50.1953125 C-2.70128418 49.23294678 -2.60959961 48.27058105 -2.51513672 47.27905273 C-2.4070166 46.23821533 -2.29889648 45.19737793 -2.1875 44.125 C-1.23553964 33.89410012 -0.67761659 23.70367169 -0.375 13.4375 C-0.35480804 12.76390442 -0.33461609 12.09030884 -0.31381226 11.39630127 C-0.20116695 7.59773198 -0.09679494 3.79900447 0 0 Z " fill="#0658DC" transform="translate(402,269)"/>
<path d="M0 0 C1.84448242 0.22583008 1.84448242 0.22583008 4 1 C5.3371582 2.9050293 5.3371582 2.9050293 6.48828125 5.38671875 C6.90932129 6.29212402 7.33036133 7.1975293 7.76416016 8.13037109 C9.70785845 12.64365236 11.48519021 17.20332204 13.1875 21.8125 C13.86822397 23.63160983 14.5492051 25.45062346 15.23046875 27.26953125 C15.52332764 28.05948486 15.81618652 28.84943848 16.11791992 29.66333008 C17.04586535 32.12149938 18.02417646 34.56044114 19 37 C31.87 37.495 31.87 37.495 45 38 C45 38.33 45 38.66 45 39 C40.93774179 39.11638426 36.8759137 39.18731373 32.8125 39.25 C31.08676758 39.30027344 31.08676758 39.30027344 29.32617188 39.3515625 C27.65844727 39.37089844 27.65844727 39.37089844 25.95703125 39.390625 C24.42526245 39.4220459 24.42526245 39.4220459 22.86254883 39.45410156 C19.18053707 38.87000417 17.61563559 37.62294183 15 35 C13.66967773 32.68505859 13.66967773 32.68505859 12.68359375 30.1484375 C12.12575195 28.74658203 12.12575195 28.74658203 11.55664062 27.31640625 C11.18732422 26.34574219 10.81800781 25.37507813 10.4375 24.375 C9.87772461 22.95380859 9.87772461 22.95380859 9.30664062 21.50390625 C8.1934202 18.67342233 7.09544152 15.83740543 6 13 C5.28681164 11.1572 4.56958337 9.31595662 3.84765625 7.4765625 C3.53965088 6.68588379 3.23164551 5.89520508 2.91430664 5.08056641 C1.96833935 2.7650058 1.96833935 2.7650058 0 0 Z " fill="#034CD8" transform="translate(257,297)"/>
<path d="M0 0 C3.95096978 -0.04939662 7.9018203 -0.08571755 11.85302734 -0.10986328 C13.8591136 -0.12488107 15.86511324 -0.15028981 17.87109375 -0.17578125 C19.12792969 -0.18222656 20.38476562 -0.18867188 21.6796875 -0.1953125 C22.84226074 -0.20578613 24.00483398 -0.21625977 25.20263672 -0.22705078 C28 0 28 0 30 2 C25.23760144 5.77810324 20.72370494 5.38349572 14.9375 5.25 C14.03966797 5.24484375 13.14183594 5.2396875 12.21679688 5.234375 C8.30114918 5.1877948 4.78470481 5.07656702 1 4 C0.67 2.68 0.34 1.36 0 0 Z " fill="#1E6DDD" transform="translate(159,333)"/>
<path d="M0 0 C0.66 0 1.32 0 2 0 C2 1.98 2 3.96 2 6 C2.66 6 3.32 6 4 6 C4.10806951 14.70559951 4.01293719 23.36743829 3.5625 32.0625 C3.52326416 32.84665283 3.48402832 33.63080566 3.44360352 34.4387207 C3.18897353 39.01081963 2.71483864 43.47669331 2 48 C1.67 48 1.34 48 1 48 C0.67 32.16 0.34 16.32 0 0 Z " fill="#1372E2" transform="translate(313,166)"/>
<path d="M0 0 C1.93552734 0.00676758 1.93552734 0.00676758 3.91015625 0.01367188 C7.06515375 0.02535705 10.22005137 0.04173956 13.375 0.0625 C13.375 0.3925 13.375 0.7225 13.375 1.0625 C12.67004395 1.08755615 11.96508789 1.1126123 11.23876953 1.13842773 C7.99238553 1.25568042 4.74620183 1.3778115 1.5 1.5 C-0.16289063 1.55897461 -0.16289063 1.55897461 -1.859375 1.61914062 C-8.4815699 1.87234219 -15.04096045 2.30351949 -21.625 3.0625 C-20.965 3.7225 -20.305 4.3825 -19.625 5.0625 C-21.419375 5.248125 -21.419375 5.248125 -23.25 5.4375 C-26.90096813 5.88575054 -30.17024899 6.76696837 -33.625 8.0625 C-33.955 7.4025 -34.285 6.7425 -34.625 6.0625 C-39.08 6.5575 -39.08 6.5575 -43.625 7.0625 C-40.77695919 4.21445919 -37.4362331 3.86261128 -33.625 3 C-32.90699219 2.82662109 -32.18898438 2.65324219 -31.44921875 2.47460938 C-20.99355328 0.05104926 -10.69836476 -0.07161624 0 0 Z " fill="#2793F9" transform="translate(109.625,8.9375)"/>
<path d="M0 0 C7.65377999 -0.05057791 15.30751713 -0.08568184 22.96142578 -0.10986328 C25.56691091 -0.11994064 28.17238469 -0.1336027 30.77783203 -0.15087891 C34.51597899 -0.17505102 38.25397685 -0.1864656 41.9921875 -0.1953125 C43.16304901 -0.20563507 44.33391052 -0.21595764 45.54025269 -0.22659302 C46.62122223 -0.22674408 47.70219177 -0.22689514 48.81591797 -0.22705078 C49.77078094 -0.231492 50.72564392 -0.23593323 51.70944214 -0.24050903 C54 0 54 0 56 2 C56 3.66666667 56 5.33333333 56 7 C55.505 6.01 55.505 6.01 55 5 C54.443125 5.185625 53.88625 5.37125 53.3125 5.5625 C50.600867 6.07551165 48.65628961 5.6640724 46 5 C46 4.34 46 3.68 46 3 C48.31 3 50.62 3 53 3 C53 2.34 53 1.68 53 1 C51.50533203 1.24363281 51.50533203 1.24363281 49.98046875 1.4921875 C43.82331146 2.25827917 37.63269499 2.14893517 31.4387207 2.13037109 C29.33472334 2.12505614 27.23094362 2.13031691 25.12695312 2.13671875 C16.71332622 2.14042536 8.38110184 1.7913332 0 1 C0 0.67 0 0.34 0 0 Z " fill="#106CDF" transform="translate(203,295)"/>
<path d="M0 0 C0 0.66 0 1.32 0 2 C-1.2375 2.37125 -2.475 2.7425 -3.75 3.125 C-8.15826368 4.81028311 -9.97333814 6.62241037 -12 11 C-13.40726456 15.96681609 -13.49523237 19.66719058 -11.125 24.3125 C-10.75632813 24.92738281 -10.38765625 25.54226562 -10.0078125 26.17578125 C-8.94316523 28.10287534 -8.44559725 29.85260051 -8 32 C-12.091918 29.12459816 -14.30239493 26.73542467 -16 22 C-16.78580791 16.10105842 -16.1907657 11.1245631 -13 6 C-8.80290684 2.40703388 -5.6170276 0 0 0 Z " fill="#026EF3" transform="translate(205,51)"/>
<path d="M0 0 C0.66 0 1.32 0 2 0 C0.60806331 6.80657042 -1.2789749 13.29556162 -3.5 19.875 C-3.80808594 20.81085938 -4.11617187 21.74671875 -4.43359375 22.7109375 C-4.73394531 23.608125 -5.03429687 24.5053125 -5.34375 25.4296875 C-5.61380859 26.23647949 -5.88386719 27.04327148 -6.16210938 27.87451172 C-7 30 -7 30 -9 33 C-9.99 32.67 -10.98 32.34 -12 32 C-11.34 31.67 -10.68 31.34 -10 31 C-9.21459434 29.03279192 -9.21459434 29.03279192 -8.60546875 26.6328125 C-7.00725965 20.98627639 -5.18320839 15.43635437 -3.3125 9.875 C-2.83200195 8.44027344 -2.83200195 8.44027344 -2.34179688 6.9765625 C-1.56258967 4.65057084 -0.78197326 2.32506289 0 0 Z " fill="#0A54D9" transform="translate(198,301)"/>
<path d="M0 0 C0.99 0.33 1.98 0.66 3 1 C2.67 5.62 2.34 10.24 2 15 C12.56 15 23.12 15 34 15 C34 15.33 34 15.66 34 16 C22.78 16.33 11.56 16.66 0 17 C-1.22329074 13.33012779 -0.88021006 10.66032178 -0.5625 6.8125 C-0.46066406 5.54019531 -0.35882813 4.26789063 -0.25390625 2.95703125 C-0.17011719 1.98121094 -0.08632812 1.00539063 0 0 Z " fill="#066AEE" transform="translate(213,84)"/>
<path d="M0 0 C0.66 0.33 1.32 0.66 2 1 C-1.51969137 4.89680116 -1.51969137 4.89680116 -3.9453125 5.41796875 C-6.56864533 6.16108014 -7.42939189 7.27102554 -9.125 9.375 C-9.87136719 10.28378906 -9.87136719 10.28378906 -10.6328125 11.2109375 C-11.81771238 12.76146363 -12.91753571 14.37630357 -14 16 C-16.97 15.505 -16.97 15.505 -20 15 C-20 14.67 -20 14.34 -20 14 C-18.35 13.67 -16.7 13.34 -15 13 C-15 12.01 -15 11.02 -15 10 C-12.8125 7.73828125 -12.8125 7.73828125 -10 5.3125 C-9.071875 4.50425781 -8.14375 3.69601562 -7.1875 2.86328125 C-6.1046875 1.94095703 -6.1046875 1.94095703 -5 1 C-4.01 1.33 -3.02 1.66 -2 2 C-1.34 1.34 -0.68 0.68 0 0 Z " fill="#0D5FDC" transform="translate(125,300)"/>
<path d="M0 0 C0.99 0 1.98 0 3 0 C0.85406445 8.54884894 -1.9494127 16.74050475 -5 25 C-5.33 25 -5.66 25 -6 25 C-5.52897524 16.20753786 -2.75783166 8.29384797 0 0 Z " fill="#0A5DDE" transform="translate(171,254)"/>
<path d="M0 0 C0.99 0.33 1.98 0.66 3 1 C4.10434166 3.28862226 4.98538946 5.42706525 5.8125 7.8125 C6.05419922 8.44220703 6.29589844 9.07191406 6.54492188 9.72070312 C7.20703125 11.58203125 7.20703125 11.58203125 8 15 C7.34 16.32 6.68 17.64 6 19 C4.35 14.05 2.7 9.1 1 4 C0.01 4.66 -0.98 5.32 -2 6 C-1.125 1.125 -1.125 1.125 0 0 Z " fill="#0660E3" transform="translate(231,210)"/>
<path d="M0 0 C2.62487216 3.93730824 4.04861321 8.07927532 5.6875 12.5 C6.02072266 13.36753906 6.35394531 14.23507813 6.69726562 15.12890625 C7.00728516 15.96292969 7.31730469 16.79695313 7.63671875 17.65625 C7.92248779 18.41744141 8.20825684 19.17863281 8.50268555 19.96289062 C9 22 9 22 8 25 C8 24.34 8 23.68 8 23 C7.34 23 6.68 23 6 23 C4.79764762 19.73443413 3.61572409 16.46184085 2.4375 13.1875 C2.09525391 12.25873047 1.75300781 11.32996094 1.40039062 10.37304688 C1.08134766 9.48037109 0.76230469 8.58769531 0.43359375 7.66796875 C0.13509521 6.84578857 -0.16340332 6.0236084 -0.47094727 5.17651367 C-1 3 -1 3 0 0 Z " fill="#0960DF" transform="translate(239,229)"/>
<path d="M0 0 C6.51784619 1.91040319 10.23720956 4.27118411 14 10 C15.00496852 13.01490557 15.10335303 15.04181692 15.0625 18.1875 C15.05347656 19.08855469 15.04445312 19.98960938 15.03515625 20.91796875 C15.02355469 21.60503906 15.01195312 22.29210937 15 23 C14.67 23 14.34 23 14 23 C14 20.03 14 17.06 14 14 C13.34 14 12.68 14 12 14 C11.608125 13.0925 11.21625 12.185 10.8125 11.25 C7.97763598 6.16679555 4.43713256 3.86415973 -1 2 C-0.67 1.34 -0.34 0.68 0 0 Z " fill="#026EF3" transform="translate(211,50)"/>
<path d="M0 0 C4.81497062 0.42610359 6.60639722 2.26555871 9.6875 5.875 C10.45449219 6.75929687 11.22148437 7.64359375 12.01171875 8.5546875 C14 11 14 11 16 14 C15.625 16.1875 15.625 16.1875 15 18 C14.50371094 17.27554688 14.00742187 16.55109375 13.49609375 15.8046875 C9.43134367 10.01993881 5.53740208 5.38377665 0 1 C0 0.67 0 0.34 0 0 Z " fill="#0E6BE7" transform="translate(267,137)"/>
<path d="M0 0 C0.33 0 0.66 0 1 0 C1.33 2.64 1.66 5.28 2 8 C2.33 8 2.66 8 3 8 C3 15.92 3 23.84 3 32 C2.67 32 2.34 32 2 32 C1.90912109 30.62714844 1.90912109 30.62714844 1.81640625 29.2265625 C1.73261719 28.03804687 1.64882813 26.84953125 1.5625 25.625 C1.48128906 24.44164063 1.40007812 23.25828125 1.31640625 22.0390625 C1.18915064 19.08481099 1.18915064 19.08481099 0 17 C-0.07194869 14.11629667 -0.09291708 11.25760336 -0.0625 8.375 C-0.05798828 7.57320313 -0.05347656 6.77140625 -0.04882812 5.9453125 C-0.03703168 3.96350994 -0.01909605 1.98174567 0 0 Z " fill="#0267EB" transform="translate(402,92)"/>
<path d="M0 0 C1.31871094 0.14985352 1.31871094 0.14985352 2.6640625 0.30273438 C4.81856123 0.54862825 6.97191076 0.80455565 9.125 1.0625 C9.125 1.3925 9.125 1.7225 9.125 2.0625 C1.375 3.1875 1.375 3.1875 -0.875 2.0625 C-2.01001953 2.30806641 -2.01001953 2.30806641 -3.16796875 2.55859375 C-6.19377772 3.12183958 -8.20227821 2.80165027 -11.1875 2.125 C-12.51201172 1.83302734 -12.51201172 1.83302734 -13.86328125 1.53515625 C-14.52714844 1.37917969 -15.19101562 1.22320312 -15.875 1.0625 C-15.875 0.7325 -15.875 0.4025 -15.875 0.0625 C-10.39099081 -1.2230956 -5.5129508 -0.66836226 0 0 Z " fill="#1289FA" transform="translate(323.875,10.9375)"/>
<path d="M0 0 C2 3 2 3 3 5.5625 C6.13457123 9.38275869 10.26803697 9.40517538 15 10 C14.67 10.66 14.34 11.32 14 12 C6.23214286 12.66964286 6.23214286 12.66964286 2.5625 9.875 C-0.22696188 6.74535984 -0.90580501 5.14457975 -1 1 C-0.67 0.67 -0.34 0.34 0 0 Z " fill="#0752DA" transform="translate(96,302)"/>
<path d="M0 0 C0.6796875 1.7734375 0.6796875 1.7734375 1 4 C-0.1796875 5.8515625 -0.1796875 5.8515625 -1.875 7.625 C-4.22930429 10.10631269 -4.22930429 10.10631269 -6 13 C-7.65 12.67 -9.3 12.34 -11 12 C-10.67 10.68 -10.34 9.36 -10 8 C-9.01 8 -8.02 8 -7 8 C-5.09314444 6.23743069 -5.09314444 6.23743069 -3.3125 4 C-2.68988281 3.2575 -2.06726563 2.515 -1.42578125 1.75 C-0.95527344 1.1725 -0.48476563 0.595 0 0 Z " fill="#0B5BDD" transform="translate(299,247)"/>
<path d="M0 0 C1.12018319 3.36054957 0.90181274 4.01723271 -0.21484375 7.23046875 C-0.48876953 8.03291016 -0.76269531 8.83535156 -1.04492188 9.66210938 C-1.48674805 10.91217773 -1.48674805 10.91217773 -1.9375 12.1875 C-2.22818359 13.03248047 -2.51886719 13.87746094 -2.81835938 14.74804688 C-3.53757537 16.83495229 -4.2650343 18.91859994 -5 21 C-5.33 21 -5.66 21 -6 21 C-6.40368295 14.54107286 -5.5915262 9.93891422 -3 4 C-2.34 4 -1.68 4 -1 4 C-0.67 2.68 -0.34 1.36 0 0 Z " fill="#1179F2" transform="translate(21,58)"/>
<path d="M0 0 C14.17332706 -0.57545839 14.17332706 -0.57545839 20 3 C20.33 3.99 20.66 4.98 21 6 C19.7625 5.54625 18.525 5.0925 17.25 4.625 C11.61120713 2.7274158 5.87474822 1.84492995 0 1 C0 0.67 0 0.34 0 0 Z " fill="#086AE7" transform="translate(243,129)"/>
<path d="M0 0 C0.66 0 1.32 0 2 0 C2.75 2.625 2.75 2.625 3 6 C1.0625 9.375 1.0625 9.375 -1 12 C-1.99 10.68 -2.98 9.36 -4 8 C-3.01 7.67 -2.02 7.34 -1 7 C-0.67 4.69 -0.34 2.38 0 0 Z M-4 12 C-3.34 12 -2.68 12 -2 12 C-2.33 12.66 -2.66 13.32 -3 14 C-3.33 13.34 -3.66 12.68 -4 12 Z " fill="#0F5FDA" transform="translate(304,325)"/>
<path d="M0 0 C9.41002278 -0.3690205 9.41002278 -0.3690205 14 2 C14 2.66 14 3.32 14 4 C14.66 4.33 15.32 4.66 16 5 C10.60204011 3.84941444 5.29012667 2.57578241 0 1 C0 0.67 0 0.34 0 0 Z " fill="#1584F9" transform="translate(337,14)"/>
<path d="M0 0 C1.32 0.33 2.64 0.66 4 1 C2.95125002 3.62187494 2.35068687 4.79371361 -0.125 6.25 C-0.74375 6.4975 -1.3625 6.745 -2 7 C-3.32 5.35 -4.64 3.7 -6 2 C-4.02 2 -2.04 2 0 2 C0 1.34 0 0.68 0 0 Z " fill="#146FE0" transform="translate(164,276)"/>
<path d="M0 0 C0.33 0.66 0.66 1.32 1 2 C-0.26886964 3.12721436 -1.54017562 4.25168658 -2.8125 5.375 C-3.52019531 6.00148438 -4.22789063 6.62796875 -4.95703125 7.2734375 C-7 9 -7 9 -10 11 C-9.42151242 7.74777105 -8.49110446 6.10208864 -6.125 3.8125 C-5.61195312 3.30332031 -5.09890625 2.79414062 -4.5703125 2.26953125 C-3 1 -3 1 0 0 Z " fill="#0F7EF9" transform="translate(43,30)"/>
<path d="M0 0 C0.66 0.66 1.32 1.32 2 2 C0.35 4.64 -1.3 7.28 -3 10 C-3.66 9.67 -4.32 9.34 -5 9 C-5.66 9.66 -6.32 10.32 -7 11 C-6.49436343 7.25828935 -5.88706033 5.4428972 -3 3 C-2.1646875 2.1646875 -2.1646875 2.1646875 -1.3125 1.3125 C-0.879375 0.879375 -0.44625 0.44625 0 0 Z " fill="#1E8CF6" transform="translate(26,51)"/>
<path d="M0 0 C3 2 3 2 3.546875 4.05859375 C3.61390625 4.84363281 3.6809375 5.62867188 3.75 6.4375 C3.86601562 7.61119141 3.86601562 7.61119141 3.984375 8.80859375 C4 11 4 11 3 14 C-0.44419134 4.58997722 -0.44419134 4.58997722 0 0 Z " fill="#0A58DA" transform="translate(15,329)"/>
<path d="M0 0 C2.55934601 1.279673 2.6989233 2.24201036 3.6875 4.875 C3.95949219 5.57367188 4.23148437 6.27234375 4.51171875 6.9921875 C5 9 5 9 4 12 C4 11.34 4 10.68 4 10 C3.34 10 2.68 10 2 10 C0.39644899 6.49223216 -0.22036864 3.85645121 0 0 Z " fill="#065BD8" transform="translate(265,310)"/>
<path d="M0 0 C1.485 0.99 1.485 0.99 3 2 C3.1875 5.625 3.1875 5.625 3 9 C3.66 9 4.32 9 5 9 C5 9.66 5 10.32 5 11 C4.01 11 3.02 11 2 11 C1.01 7.7 0.02 4.4 -1 1 C-0.67 0.67 -0.34 0.34 0 0 Z " fill="#126EDC" transform="translate(19,334)"/>
<path d="M0 0 C1.125 1.5 1.125 1.5 2 4 C1.57598348 6.7773082 0.81108065 9.29639783 0 12 C-0.66 12 -1.32 12 -2 12 C-2.21278058 7.53160785 -1.59138085 4.17737474 0 0 Z " fill="#003FDC" transform="translate(100,282)"/>
<path d="M0 0 C0.66 0.33 1.32 0.66 2 1 C1.67 2.65 1.34 4.3 1 6 C-0.8125 6.625 -0.8125 6.625 -3 7 C-3.99 6.34 -4.98 5.68 -6 5 C-4.35 4.67 -2.7 4.34 -1 4 C-1 3.01 -1 2.02 -1 1 C-0.67 0.67 -0.34 0.34 0 0 Z " fill="#116CDE" transform="translate(111,309)"/>
<path d="M0 0 C-1.24176695 0.70226141 -2.49385599 1.38629109 -3.75 2.0625 C-4.79414063 2.63677734 -4.79414063 2.63677734 -5.859375 3.22265625 C-8.36140628 4.1312406 -9.5332355 3.88336837 -12 3 C-10.5682384 2.30062798 -9.12932968 1.61587282 -7.6875 0.9375 C-6.48673828 0.36322266 -6.48673828 0.36322266 -5.26171875 -0.22265625 C-3 -1 -3 -1 0 0 Z " fill="#0E70E7" transform="translate(167,130)"/>
<path d="M0 0 C0.33 0.66 0.66 1.32 1 2 C1.66 2 2.32 2 3 2 C3.66 4.31 4.32 6.62 5 9 C4.34 9.66 3.68 10.32 3 11 C2.49384702 9.73160474 1.99530901 8.46016898 1.5 7.1875 C1.2215625 6.47980469 0.943125 5.77210937 0.65625 5.04296875 C0 3 0 3 0 0 Z " fill="#0874F3" transform="translate(394,59)"/>
<path d="M0 0 C2.64 0 5.28 0 8 0 C7.01 1.485 7.01 1.485 6 3 C3.69 2.67 1.38 2.34 -1 2 C-0.67 1.34 -0.34 0.68 0 0 Z " fill="#1488F6" transform="translate(204,49)"/>
<path d="M0 0 C1.9375 0.3125 1.9375 0.3125 4 1 C4.33 1.99 4.66 2.98 5 4 C4.01 4.99 3.02 5.98 2 7 C1.34 4.69 0.68 2.38 0 0 Z " fill="#1171E0" transform="translate(290,284)"/>
<path d="M0 0 C1.32 0.33 2.64 0.66 4 1 C4.33 2.32 4.66 3.64 5 5 C3.35 4.67 1.7 4.34 0 4 C0 2.68 0 1.36 0 0 Z " fill="#1469DD" transform="translate(288,255)"/>
<path d="M0 0 C4.42857143 5.14285714 4.42857143 5.14285714 5 9 C2.5 7.3125 2.5 7.3125 0 5 C-0.3125 2.25 -0.3125 2.25 0 0 Z " fill="#0C77F2" transform="translate(192,74)"/>
<path d="M0 0 C1.32 0 2.64 0 4 0 C4 2.64 4 5.28 4 8 C1.10067643 5.60490662 0.49831724 3.68754757 0 0 Z " fill="#136FDC" transform="translate(300,310)"/>
</svg>
